<svg xmlns="http://www.w3.org/2000/svg" width="45" height="58" viewBox="0 0 45 58">
  <g id="_136440" data-name="136440" transform="translate(-6.5)">
    <path id="Path_1" data-name="Path 1" d="M50.95,12.187l-.771-.771-10.1-10.1L39.313.55A1.891,1.891,0,0,0,37.985,0H8.963C7.777,0,6.5.916,6.5,2.926V56a2.291,2.291,0,0,0,1.838,1.91c.05.013.1.032.15.042A2.437,2.437,0,0,0,8.963,58H49.037a2.437,2.437,0,0,0,.475-.048c.052-.01.1-.029.15-.042A2.291,2.291,0,0,0,51.5,56V13.978A2.3,2.3,0,0,0,50.95,12.187ZM47.935,12H39.5V3.565ZM8.963,56a.576.576,0,0,1-.2-.049.458.458,0,0,1-.265-.414V41h41V55.537a.459.459,0,0,1-.265.414.576.576,0,0,1-.2.049ZM8.5,39V2.926c0-.217.033-.926.463-.926H37.558a1.54,1.54,0,0,0-.058.391V14H49.109a1.532,1.532,0,0,0,.39-.058c0,.015,0,.021,0,.036V39Z" fill="#1a4161"/>
    <path id="Path_2" data-name="Path 2" d="M22.042,44.744a3.438,3.438,0,0,0-1.128-.615,4.067,4.067,0,0,0-1.271-.205h-2.9V54h1.641V50.363H19.6a4.314,4.314,0,0,0,1.449-.232,3.267,3.267,0,0,0,1.121-.656,2.913,2.913,0,0,0,.725-1.046,3.572,3.572,0,0,0,.26-1.388,2.751,2.751,0,0,0-.308-1.306A3.215,3.215,0,0,0,22.042,44.744Zm-.622,3.329a1.649,1.649,0,0,1-.4.649,1.5,1.5,0,0,1-.54.335,1.808,1.808,0,0,1-.595.1h-1.5V45.168h1.23a2.213,2.213,0,0,1,1.012.2,1.657,1.657,0,0,1,.595.492,1.637,1.637,0,0,1,.28.615,2.8,2.8,0,0,1,.068.567A3.077,3.077,0,0,1,21.42,48.073Z" fill="#1a4161"/>
    <path id="Path_3" data-name="Path 3" d="M31.954,45.4a4.631,4.631,0,0,0-1.6-1.073,5.774,5.774,0,0,0-2.235-.4H25.084V54H28.9a5.439,5.439,0,0,0,.588-.048,4.036,4.036,0,0,0,.875-.219,4.584,4.584,0,0,0,.991-.513,3.478,3.478,0,0,0,.923-.937,5.285,5.285,0,0,0,.677-1.477,7.4,7.4,0,0,0,.267-2.126,5.059,5.059,0,0,0-.314-1.757A4.436,4.436,0,0,0,31.954,45.4Zm-1.2,6.33A2.716,2.716,0,0,1,28.352,52.8H26.725V45.167h.957a5.034,5.034,0,0,1,1.914.308,3.066,3.066,0,0,1,1.169.807,2.661,2.661,0,0,1,.581,1.114,5.234,5.234,0,0,1,.15,1.244A5.41,5.41,0,0,1,30.758,51.73Z" fill="#1a4161"/>
    <path id="Path_4" data-name="Path 4" d="M35.6,54h1.668V49.461h4.211V48.34H37.266V45.168H41.9V43.924H35.6Z" fill="#1a4161"/>
    <path id="Path_5" data-name="Path 5" d="M38.428,22.961a19.356,19.356,0,0,0-3.358.358,31.954,31.954,0,0,1-5.088-7.562c1.337-5.629.668-6.426.373-6.8-.314-.4-.757-1.049-1.261-1.049a4.932,4.932,0,0,0-1.016.172,1.921,1.921,0,0,0-1.134,1.215c-.707,1.653.263,4.471,1.261,6.643a67.126,67.126,0,0,1-3.788,10.75c-3.79,1.736-5.8,3.441-5.985,5.068A2.4,2.4,0,0,0,19.547,34a1.605,1.605,0,0,0,.967.326h0c.875,0,1.759-.67,2.782-2.107a28.373,28.373,0,0,0,2.383-4.251,47.915,47.915,0,0,1,8.828-2.822c1.58,1.517,2.995,2.285,4.211,2.285a2.655,2.655,0,0,0,2.22-1.191,2.022,2.022,0,0,0,.39-2.16C40.943,23.327,39.994,22.961,38.428,22.961ZM20.536,32.634c-.468-.359-.441-.6-.431-.692.062-.556.933-1.543,3.07-2.744C21.555,32.19,20.685,32.587,20.536,32.634Zm8.2-22.922c.043-.014,1.045,1.1.1,3.216A2.4,2.4,0,0,1,28.736,9.712ZM26.669,25.738a71.292,71.292,0,0,0,2.674-7.564,34.23,34.23,0,0,0,3.822,5.544A49.812,49.812,0,0,0,26.669,25.738Zm12.9-.479a1.507,1.507,0,0,1-1.21.441c-.533,0-.732-.317-1.547-.944a14.4,14.4,0,0,1,1.811-.108c.889,0,1.052.131,1.175.2A1.552,1.552,0,0,1,39.57,25.259Z" fill="#1a4161"/>
  </g>
</svg>
